# xmcd CD database file
#
# Track frame offsets:
#	150
#	15121
#	37676
#	55357
#	70435
#	86073
#	113967
#	162026
#
# Disc length: 2209 seconds
#
# Revision: 0
# Processed by: cddbd v1.5.1PL0 Copyright (c) Steve Scherf et al.
# Submitted via: CDex 1.60beta1
#
DISCID=59089f08
DTITLE=Kasey Cambers - Music Inspired By Down From The Mountain
DYEAR=2002
DGENRE=Country
TTITLE0=Not Pretty Enough
TTITLE1=A Million Tears
TTITLE2=Things Never Shared
TTITLE3=Dream
TTITLE4=Sometime
TTITLE5=Ted's Jam (Edit)
TTITLE6=The March
TTITLE7=Data Track
EXTD=YEAR: 2002
EXTT0=
EXTT1=
EXTT2=
EXTT3=
EXTT4=
EXTT5=
EXTT6=
EXTT7=
PLAYORDER=
